<svg data-name="Layer 1" xmlns="http://www.w3.org/2000/svg" viewBox="0 0 2499.758 1494.845"><path d="M704.456 542.9c0 30.762 3.326 55.7 9.145 73.994a445.018 445.018 0 0 0 26.6 59.86 36.164 36.164 0 0 1 5.82 19.122c0 8.314-4.988 16.628-15.8 24.942l-52.378 34.918c-7.477 4.987-14.957 7.487-21.608 7.487-8.314 0-16.628-4.157-24.942-11.64a257.2 257.2 0 0 1-29.93-39.075c-8.314-14.134-16.628-29.93-25.773-49.052q-97.273 114.732-244.43 114.732c-69.837 0-125.54-19.953-166.279-59.86s-61.523-93.116-61.523-159.627c0-70.668 24.942-128.035 75.657-171.267s118.058-64.849 203.691-64.849c28.267 0 57.366 2.494 88.128 6.651s62.355 10.808 95.61 18.291v-60.696c0-63.186-13.3-107.25-39.075-133.023-26.6-25.773-71.5-38.244-135.517-38.244a378.271 378.271 0 0 0-89.79 10.808 662.461 662.461 0 0 0-89.79 28.267 238.551 238.551 0 0 1-29.1 10.808c-5.82 1.663-9.977 2.494-13.3 2.494-11.64 0-17.459-8.314-17.459-25.773V101.43c0-13.3 1.663-23.279 5.82-29.1s11.64-11.64 23.279-17.459q43.646-22.448 104.754-37.411c40.738-10.808 83.97-15.797 129.7-15.797 98.936 0 171.267 22.448 217.825 67.343 45.727 44.9 69.006 113.07 69.006 204.523V542.9zM366.911 669.272c27.436 0 55.7-4.988 85.634-14.965s56.535-28.267 78.982-53.209c13.3-15.8 23.279-33.256 28.267-53.209s8.314-44.064 8.314-72.331v-34.919a694.311 694.311 0 0 0-76.488-14.134 626.463 626.463 0 0 0-78.151-4.988c-55.7 0-96.442 10.808-123.878 33.256s-40.738 54.041-40.738 95.61c0 39.075 9.977 68.174 30.762 88.128 19.953 20.785 49.052 30.762 87.3 30.762zm667.609 89.791c-14.965 0-24.942-2.494-31.593-8.314-6.652-4.989-12.471-16.626-17.461-32.426L790.09 75.657c-4.988-16.628-7.483-27.436-7.483-33.256 0-13.3 6.651-20.785 19.953-20.785h81.477c15.8 0 26.6 2.494 32.424 8.314 6.651 4.988 11.64 16.628 16.628 32.424l139.677 550.383 129.7-550.382c4.157-16.628 9.145-27.436 15.8-32.424s18.291-8.314 33.256-8.314h66.511c15.8 0 26.6 2.494 33.256 8.314 6.651 4.988 12.471 16.628 15.8 32.424l131.36 557.034 143.817-557.034c4.99-16.632 10.81-27.432 16.63-32.424 6.651-4.988 17.459-8.314 32.424-8.314h77.32c13.3 0 20.785 6.651 20.785 20.785 0 4.157-.831 8.314-1.663 13.3a118.293 118.293 0 0 1-5.82 20.785l-200.366 642.669q-7.483 24.942-17.459 32.424c-6.651 4.988-17.459 8.314-31.593 8.314h-71.5c-15.8 0-26.6-2.494-33.256-8.314s-12.471-16.628-15.8-33.256l-128.862-536.248-128.035 535.417c-4.157 16.628-9.145 27.436-15.8 33.256s-18.291 8.314-33.256 8.314zm1068.34 22.448a550.172 550.172 0 0 1-128.035-14.965c-41.57-9.977-73.994-20.785-95.61-33.256-13.3-7.483-22.448-15.8-25.773-23.279a58.685 58.685 0 0 1-4.988-23.279v-42.4c0-17.459 6.651-25.773 19.122-25.773a47.077 47.077 0 0 1 14.965 2.494c4.988 1.663 12.471 4.988 20.785 8.314a452.226 452.226 0 0 0 91.453 29.1 499.284 499.284 0 0 0 98.936 9.977c52.378 0 93.116-9.145 121.383-27.436s43.233-44.9 43.233-78.982c0-23.279-7.482-42.4-22.448-58.2s-43.233-29.93-83.971-43.232l-120.552-37.413c-60.692-19.122-105.587-47.389-133.023-84.8-27.436-36.581-41.57-77.32-41.57-120.552q0-52.378 22.448-92.285a213.769 213.769 0 0 1 59.86-68.174c24.942-19.122 53.209-33.256 86.465-43.232S2093.715 0 2130.296 0a417.366 417.366 0 0 1 55.7 3.326c19.122 2.494 36.581 5.82 54.041 9.145 16.628 4.157 32.424 8.314 47.39 13.3s26.6 9.977 34.919 14.965c11.639 6.651 19.953 13.3 24.942 20.785q7.483 9.977 7.482 27.436v39.075c0 17.459-6.651 26.6-19.122 26.6-6.651 0-17.459-3.326-31.593-9.977q-71.084-32.424-159.628-32.424c-47.389 0-84.8 7.483-110.575 23.279s-39.075 39.907-39.075 73.994c0 23.279 8.314 43.232 24.942 59.029s47.389 31.593 91.453 45.727l118.058 37.413c59.86 19.122 103.093 45.727 128.866 79.814s38.244 73.163 38.244 116.4c0 35.75-7.482 68.174-21.616 96.442-14.965 28.267-34.919 53.209-60.692 73.163-25.773 20.785-56.535 35.75-92.285 46.558-37.413 11.64-76.488 17.459-118.889 17.459z" fill="#252f3e"/><path d="M2220.086 1122.381c-306.784 129.7-640.173 192.883-943.632 192.883-449.784 0-884.6-123.878-1237.113-328.4-30.762-18.291-54.041 13.3-28.267 36.581 325.906 294.313 757.4 471.4 1236.282 471.4 341.7 0 739.109-107.25 1012.637-309.278 44.896-33.255 5.82-83.97-39.907-63.186z" fill="#f90"/><path d="M2490.289 966.079c-29.93-36.581-286.831-68.174-443.133 41.57-24.11 17.459-19.953 40.738 6.651 37.413 88.959-10.808 285.168-34.087 320.086 10.808 34.918 44.064-39.076 229.465-72.331 311.772-9.977 24.942 11.639 34.919 34.087 15.8 146.326-123.049 184.57-379.95 154.64-417.363z" fill="#f90"/></svg>