<?xml version="1.0" encoding="utf-8"?>
<!-- Generator: Adobe Illustrator 20.1.0, SVG Export Plug-In . SVG Version: 6.00 Build 0)  -->
<svg version="1.1" id="レイヤー_1" xmlns="http://www.w3.org/2000/svg" xmlns:xlink="http://www.w3.org/1999/xlink" x="0px"
	 y="0px" viewBox="0 0 70 70" style="enable-background:new 0 0 70 70;" xml:space="preserve">
<title>instagram (1)</title>
<g id="surface1">
	
		<linearGradient id="SVGID_1_" gradientUnits="userSpaceOnUse" x1="10123.9883" y1="-10717.9805" x2="10123.9883" y2="-10172.8311" gradientTransform="matrix(8.300000e-02 0 0 -8.300000e-02 -805.291 -830.706)">
		<stop  offset="0" style="stop-color:#E09B3D"/>
		<stop  offset="0.3" style="stop-color:#C74C4D"/>
		<stop  offset="0.6" style="stop-color:#C21975"/>
		<stop  offset="1" style="stop-color:#7024C4"/>
	</linearGradient>
	<path style="fill:url(#SVGID_1_);" d="M44.2,12.2H25.8c-7.5,0-13.5,6.1-13.6,13.6v18.4c0,7.5,6.1,13.5,13.6,13.6h18.4
		c7.5,0,13.5-6.1,13.6-13.6V25.8C57.7,18.3,51.7,12.3,44.2,12.2z M53.2,44.2c0,5-4,9-9,9H25.8c-5,0-9-4-9-9V25.8c0-5,4-9,9-9h18.4
		c5,0,9,4,9,9C53.2,25.8,53.2,44.2,53.2,44.2z"/>
	
		<linearGradient id="SVGID_2_" gradientUnits="userSpaceOnUse" x1="10123.9883" y1="-10717.9805" x2="10123.9883" y2="-10172.8311" gradientTransform="matrix(8.300000e-02 0 0 -8.300000e-02 -805.291 -830.706)">
		<stop  offset="0" style="stop-color:#E09B3D"/>
		<stop  offset="0.3" style="stop-color:#C74C4D"/>
		<stop  offset="0.6" style="stop-color:#C21975"/>
		<stop  offset="1" style="stop-color:#7024C4"/>
	</linearGradient>
	<path style="fill:url(#SVGID_2_);" d="M35,23.2c-6.5,0-11.8,5.3-11.8,11.8S28.5,46.8,35,46.8S46.8,41.5,46.8,35l0,0
		C46.8,28.5,41.5,23.2,35,23.2z M35,42.2c-4,0-7.2-3.2-7.2-7.2s3.2-7.2,7.2-7.2s7.2,3.2,7.2,7.2S39,42.2,35,42.2L35,42.2z"/>
	
		<linearGradient id="SVGID_3_" gradientUnits="userSpaceOnUse" x1="10266.1572" y1="-10717.9805" x2="10266.1572" y2="-10172.8311" gradientTransform="matrix(8.300000e-02 0 0 -8.300000e-02 -805.291 -830.706)">
		<stop  offset="0" style="stop-color:#E09B3D"/>
		<stop  offset="0.3" style="stop-color:#C74C4D"/>
		<stop  offset="0.6" style="stop-color:#C21975"/>
		<stop  offset="1" style="stop-color:#7024C4"/>
	</linearGradient>
	<path style="fill:url(#SVGID_3_);" d="M49.6,23.3c0,1.6-1.3,2.8-2.8,2.8c-1.6,0-2.8-1.3-2.8-2.8c0-1.6,1.3-2.8,2.8-2.8l0,0
		C48.3,20.5,49.6,21.8,49.6,23.3z"/>
</g>
</svg>
