<?xml version="1.0" encoding="utf-8"?>
<!-- Generator: Adobe Illustrator 20.1.0, SVG Export Plug-In . SVG Version: 6.00 Build 0)  -->
<svg version="1.1" id="レイヤー_1" xmlns="http://www.w3.org/2000/svg" xmlns:xlink="http://www.w3.org/1999/xlink" x="0px"
	 y="0px" viewBox="0 0 64 64" style="enable-background:new 0 0 64 64;" xml:space="preserve">
<style type="text/css">
	.st0{fill:url(#SVGID_1_);}
	.st1{fill:url(#SVGID_2_);}
	.st2{fill:url(#SVGID_3_);}
</style>
<g id="surface1">
	
		<linearGradient id="SVGID_1_" gradientUnits="userSpaceOnUse" x1="2864.4661" y1="3096.3784" x2="2864.4661" y2="2551.2283" gradientTransform="matrix(8.259200e-02 0 0 8.259200e-02 -204.582 -201.113)">
		<stop  offset="0" style="stop-color:#E09B3D"/>
		<stop  offset="0.3" style="stop-color:#C74C4D"/>
		<stop  offset="0.6" style="stop-color:#C21975"/>
		<stop  offset="1" style="stop-color:#7024C4"/>
	</linearGradient>
	<path class="st0" d="M41.2,9.2H22.8c-7.5,0-13.6,6.1-13.6,13.6v18.4c0,7.5,6.1,13.6,13.6,13.6h18.4c7.5,0,13.6-6.1,13.6-13.6V22.8
		C54.8,15.3,48.7,9.2,41.2,9.2z M50.2,41.2c0,5-4,9-9,9H22.8c-5,0-9-4-9-9V22.8c0-5,4-9,9-9h18.4c5,0,9,4,9,9V41.2z"/>
	
		<linearGradient id="SVGID_2_" gradientUnits="userSpaceOnUse" x1="2864.4661" y1="3096.3784" x2="2864.4661" y2="2551.2283" gradientTransform="matrix(8.259200e-02 0 0 8.259200e-02 -204.582 -201.113)">
		<stop  offset="0" style="stop-color:#E09B3D"/>
		<stop  offset="0.3" style="stop-color:#C74C4D"/>
		<stop  offset="0.6" style="stop-color:#C21975"/>
		<stop  offset="1" style="stop-color:#7024C4"/>
	</linearGradient>
	<path class="st1" d="M32,20.2c-6.5,0-11.8,5.3-11.8,11.8c0,6.5,5.3,11.8,11.8,11.8S43.8,38.5,43.8,32S38.5,20.2,32,20.2z M32,39.2
		c-4,0-7.2-3.2-7.2-7.2s3.2-7.2,7.2-7.2s7.2,3.2,7.2,7.2S36,39.2,32,39.2z"/>
	
		<linearGradient id="SVGID_3_" gradientUnits="userSpaceOnUse" x1="3007.2529" y1="3096.3784" x2="3007.2529" y2="2551.2283" gradientTransform="matrix(8.259200e-02 0 0 8.259200e-02 -204.582 -201.113)">
		<stop  offset="0" style="stop-color:#E09B3D"/>
		<stop  offset="0.3" style="stop-color:#C74C4D"/>
		<stop  offset="0.6" style="stop-color:#C21975"/>
		<stop  offset="1" style="stop-color:#7024C4"/>
	</linearGradient>
	<path class="st2" d="M46.6,20.3c0,1.6-1.3,2.8-2.8,2.8c-1.6,0-2.8-1.3-2.8-2.8c0-1.6,1.3-2.8,2.8-2.8
		C45.3,17.5,46.6,18.8,46.6,20.3z"/>
</g>
</svg>
