<?xml version="1.0" encoding="utf-8"?>
<!-- Generator: Adobe Illustrator 20.1.0, SVG Export Plug-In . SVG Version: 6.00 Build 0)  -->
<svg version="1.1" id="Layer_1" xmlns="http://www.w3.org/2000/svg" xmlns:xlink="http://www.w3.org/1999/xlink" x="0px" y="0px"
	 viewBox="0 0 64 64" style="enable-background:new 0 0 64 64;" xml:space="preserve">
<g>
	<path d="M41.4,11H22.6C16.2,11,11,16.2,11,22.6v18.8C11,47.8,16.2,53,22.6,53h18.8C47.8,53,53,47.8,53,41.4V22.6
		C53,16.2,47.8,11,41.4,11z M49.3,41.4c0,4.3-3.5,7.9-7.9,7.9H22.6c-4.3,0-7.9-3.5-7.9-7.9V22.6c0-4.3,3.5-7.9,7.9-7.9h18.8
		c4.3,0,7.9,3.5,7.9,7.9L49.3,41.4L49.3,41.4z"/>
	<path d="M32,21.2c-6,0-10.8,4.9-10.8,10.8c0,6,4.9,10.8,10.8,10.8S42.8,38,42.8,32C42.8,26,38,21.2,32,21.2z M32,39.1
		c-3.9,0-7.1-3.2-7.1-7.1c0-3.9,3.2-7.1,7.1-7.1s7.1,3.2,7.1,7.1C39.1,35.9,35.9,39.1,32,39.1z"/>
	<path d="M43.3,18c-0.7,0-1.4,0.3-1.9,0.8c-0.5,0.5-0.8,1.2-0.8,1.9c0,0.7,0.3,1.4,0.8,1.9c0.5,0.5,1.2,0.8,1.9,0.8
		c0.7,0,1.4-0.3,1.9-0.8c0.5-0.5,0.8-1.2,0.8-1.9c0-0.7-0.3-1.4-0.8-1.9C44.7,18.3,44,18,43.3,18z"/>
</g>
</svg>
