<svg data-name="Lager 1" xmlns="http://www.w3.org/2000/svg" viewBox="0 0 100 100"><path d="M50 0a50 50 0 1 0 50 50A50.018 50.018 0 0 0 50 0z" fill="#46483e"/><path d="M50 81.9a4.514 4.514 0 0 1-2.5-.7l-7.8-4.6c-1.2-.7-.6-.9-.2-1A18.134 18.134 0 0 0 43 74a.471.471 0 0 1 .6.1l6 3.6a.854.854 0 0 0 .7 0l23.4-13.5a.822.822 0 0 0 .4-.6v-27a.548.548 0 0 0-.4-.6L50.4 22.4a.854.854 0 0 0-.7 0L26.3 35.8a.822.822 0 0 0-.4.6v27a.622.622 0 0 0 .4.6l6.4 3.7c3.5 1.7 5.6-.3 5.6-2.4V38.8a.684.684 0 0 1 .7-.7h3a.684.684 0 0 1 .7.7v26.6c0 4.7-2.5 7.3-6.9 7.3-1.4 0-2.4 0-5.4-1.5l-6.1-3.5a5.043 5.043 0 0 1-2.5-4.3v-27a4.953 4.953 0 0 1 2.5-4.3l23.4-13.5a5.3 5.3 0 0 1 4.9 0L76 32.1a5.043 5.043 0 0 1 2.5 4.3v27a4.953 4.953 0 0 1-2.5 4.3L52.5 81.3a5.421 5.421 0 0 1-2.5.6z" fill="#81cf08"/><path d="M57.3 63.3c-10.2 0-12.4-4.7-12.4-8.6a.684.684 0 0 1 .7-.7h3a.73.73 0 0 1 .7.6c.4 3.1 1.8 4.6 8 4.6 4.9 0 7-1.1 7-3.7 0-1.5-.6-2.6-8.3-3.4-6.4-.6-10.4-2-10.4-7.2 0-4.7 4-7.5 10.7-7.5 7.5 0 11.2 2.6 11.7 8.2a.684.684 0 0 1-.7.7h-3a.752.752 0 0 1-.7-.5c-.7-3.2-2.5-4.3-7.3-4.3-5.4 0-6 1.9-6 3.3 0 1.7.7 2.2 8 3.2 7.2.9 10.6 2.3 10.6 7.3 0 5.1-4.2 8-11.6 8z" fill="#81cf08"/></svg>