<?xml version="1.0" encoding="utf-8"?>
<!-- Generator: Adobe Illustrator 20.1.0, SVG Export Plug-In . SVG Version: 6.00 Build 0)  -->
<svg version="1.1" id="Social_Icons" xmlns="http://www.w3.org/2000/svg" xmlns:xlink="http://www.w3.org/1999/xlink" x="0px"
	 y="0px" viewBox="0 0 128 128" style="enable-background:new 0 0 128 128;" xml:space="preserve">
<g id="_x34__stroke">
	<g id="Youtube_1_">
		<rect style="fill:none;" width="128" height="128"/>
		<path id="Youtube" style="fill:#CE1312;" d="M114.6,43.2c0,0-1-7.2-4.1-10.3c-3.9-4.1-8.3-4.2-10.3-4.4C85.7,27.5,64,27.5,64,27.5
			h0c0,0-21.7,0-36.1,1.1c-2,0.2-6.4,0.3-10.3,4.4c-3.1,3.2-4.1,10.3-4.1,10.3s-1,8.4-1,16.8v7.9c0,8.4,1,16.8,1,16.8
			s1,7.2,4.1,10.3c3.9,4.1,9.1,4,11.4,4.4c8.3,0.8,35.1,1,35.1,1s21.7,0,36.1-1.1c2-0.2,6.4-0.3,10.3-4.4c3.1-3.2,4.1-10.3,4.1-10.3
			s1-8.4,1-16.8V60C115.6,51.6,114.6,43.2,114.6,43.2z M53.3,77.5l0-29.2l27.9,14.6L53.3,77.5z"/>
	</g>
</g>
</svg>